<?xml version="1.0" encoding="utf-8"?>
<!-- Generator: Adobe Illustrator 24.3.0, SVG Export Plug-In . SVG Version: 6.00 Build 0)  -->
<svg version="1.1" id="Layer_1" xmlns="http://www.w3.org/2000/svg" xmlns:xlink="http://www.w3.org/1999/xlink" x="0px" y="0px"
	 viewBox="0 0 100 125" style="enable-background:new 0 0 100 125;" xml:space="preserve">
<style type="text/css">
	.st0{fill:#FFFFFF;stroke:#FFFFFF;stroke-miterlimit:10;}
</style>
<path class="st0" d="M37.5,20.1v-4.4c0-0.8,0.7-1.5,1.5-1.5c0.8,0,1.5,0.7,1.5,1.5v4.4c0,0.8-0.7,1.5-1.5,1.5
	C38.2,21.6,37.5,20.9,37.5,20.1z M29.3,23.1c0.3,0.5,0.8,0.8,1.3,0.8c0.3,0,0.5-0.1,0.8-0.2c0.7-0.4,1-1.3,0.6-2.1l-2.8-4.9
	c-0.4-0.7-1.3-1-2.1-0.6c-0.7,0.4-1,1.3-0.6,2.1L29.3,23.1z M17,25.9l6.7,3.9c0.2,0.1,0.5,0.2,0.8,0.2c0.5,0,1-0.3,1.3-0.8
	c0.4-0.7,0.2-1.7-0.6-2.1l-6.7-3.9c-0.7-0.4-1.7-0.2-2.1,0.6S16.2,25.5,17,25.9z M17.7,38.5h4.4c0.8,0,1.5-0.7,1.5-1.5
	c0-0.8-0.7-1.5-1.5-1.5h-4.4c-0.8,0-1.5,0.7-1.5,1.5C16.2,37.8,16.9,38.5,17.7,38.5z M54.4,36.9c0,0.8,0.7,1.5,1.5,1.5l5.6,0
	c0.8,0,1.5-0.7,1.5-1.5c0-0.8-0.7-1.5-1.5-1.5H56C55.1,35.4,54.4,36.1,54.4,36.9z M52.4,29.3c0.3,0.5,0.8,0.8,1.3,0.8
	c0.3,0,0.5-0.1,0.8-0.2l4.8-2.8c0.7-0.4,1-1.3,0.6-2.1c-0.4-0.7-1.3-1-2.1-0.6l-4.8,2.8C52.2,27.6,52,28.5,52.4,29.3z M46.8,23.6
	c0.2,0.1,0.5,0.2,0.8,0.2c0.5,0,1-0.3,1.3-0.8l4.9-8.6c0.4-0.7,0.2-1.7-0.6-2.1c-0.7-0.4-1.7-0.2-2.1,0.6l-4.9,8.6
	C45.8,22.3,46,23.2,46.8,23.6z M80.7,63.8v20.7c0,0.2,0,0.4-0.1,0.5c-0.3,0.8-7.2,19-7.6,19.9c-0.8,2-2.3,3.2-4.1,3.2H39.5
	c-3.6,0-3.8-1.7-3.8-4.1c0-0.8,0-1.9,0-2.8c0,0,0,0,0,0c0,0,0,0,0,0c0-0.2,0-0.5,0-0.7c0-0.8-0.3-1.8-0.6-2.4
	C33,94.7,22.5,77.6,19.2,72.2c-2.4-3.8-3.2-6.6-2.7-8.9c0.4-1.6,1.4-3,3.2-4.1c3.9-2.4,7.1-1.5,11.7,3.9V36.3c0-4.2,3.4-7.6,7.6-7.6
	c4.2,0,7.6,3.4,7.6,7.6v10.5h4.6c3.2,0,6,2,7.1,4.9h3.9c3.1,0,5.7,1.8,6.9,4.5h3.9C77.3,56.2,80.7,59.6,80.7,63.8z M70.2,103.8
	c0-0.1,0.2-0.5,0.4-1H38.7c0,0.5,0,0.9,0,1.3c0,0.3,0,0.7,0,1c0.2,0,0.4,0,0.8,0h29.4C69.6,105.1,70.1,104.1,70.2,103.8z M77.7,63.8
	c0-2.5-2-4.6-4.6-4.6h-3.2c0,0,0,0.1,0,0.1v5.9c0,0.8-0.7,1.5-1.5,1.5c-0.8,0-1.5-0.7-1.5-1.5v-5.9c0-2.5-2.1-4.6-4.6-4.6h-3.4v6.6
	c0,0.8-0.7,1.5-1.5,1.5s-1.5-0.7-1.5-1.5v-6.9c0-2.5-2.1-4.6-4.6-4.6h-4.6v11.5c0,0.8-0.7,1.5-1.5,1.5c-0.8,0-1.5-0.7-1.5-1.5v-25
	c0-2.5-2.1-4.6-4.6-4.6s-4.6,2.1-4.6,4.6v38.3c0,0.8-0.7,1.5-1.5,1.5c-0.8,0-1.5-0.7-1.5-1.5V68c0,0,0,0,0,0
	c-6.4-8.5-8.3-7.3-10.1-6.2c-1.4,0.9-1.8,1.7-1.9,2.2c-0.3,1.4,0.4,3.6,2.3,6.6c3.4,5.4,13.8,22.6,15.9,25.9c0.5,0.9,0.9,2.1,1,3.2
	h33.1c1.8-4.6,4.5-11.8,5.9-15.5L77.7,63.8L77.7,63.8z"/>
</svg>
